inDegrees=yes
name=ik_lifting_orientations
DataType=double
version=3
OpenSimVersion=4.5-2024-01-10-34fd6af
endheader
time	pelvis_tilt	pelvis_list	pelvis_rotation	pelvis_tx	pelvis_ty	pelvis_tz	hip_flexion_r	hip_adduction_r	hip_rotation_r	knee_angle_r	knee_angle_r_beta	ankle_angle_r	subtalar_angle_r	mtp_angle_r	hip_flexion_l	hip_adduction_l	hip_rotation_l	knee_angle_l	knee_angle_l_beta	ankle_angle_l	subtalar_angle_l	mtp_angle_l	lumbar_extension	lumbar_bending	lumbar_rotation	arm_flex_r	arm_add_r	arm_rot_r	elbow_flex_r	pro_sup_r	wrist_flex_r	wrist_dev_r	arm_flex_l	arm_add_l	arm_rot_l	elbow_flex_l	pro_sup_l	wrist_flex_l	wrist_dev_l
0.02	-0.008922953752283962	-0.02153415449492238	-90.00368116456208	0	0.9399999998679526	0	44.99032510477169	-11.65891933575927	0	59.99596541301245	1.047127134369707	-5.804286473833386	0	0	44.99032510477169	-11.65891933575927	0	59.99596541301245	1.047127134369707	-5.804286473833386	0	0	-0.03898173116609428	0.01221672080154555	0.0267733033991486	-0.4653440095779352	-0.1240487427347037	-0.04095811655022187	1.006711236160694	2.549690786367451	0	0	0	-10.29457151065638	0	87.50082066017013	2.549690786367451	0	0
0.03	-0.00792168958331277	-0.004677595918186111	-89.93152003422742	0	0.9399999998679526	0	44.9906032629849	-11.50895646403635	0	59.99606018277053	1.047128788414017	-5.713531258630731	0	0	44.9906032629849	-11.50895646403635	0	59.99606018277053	1.047128788414017	-5.713531258630731	0	0	-0.0009211335083135523	0.003421647559950148	-0.0668345806274129	-0.2333326843382054	-0.03640384599612281	0.01462138814012514	0.4960880249573369	2.49799841073536	0	0	0	-10.36536398334855	0	87.55148410593374	2.49799841073536	0	0
0.04	-0.003560802861991948	-0.003622456466694541	-89.93765511668144	0	0.9399999998679526	0	44.99095828231226	-11.34632694876626	0	59.9961830515849	1.047130932879375	-5.620785077712733	0	0	44.99095828231226	-11.34632694876626	0	59.9961830515849	1.047130932879375	-5.620785077712733	0	0	-0.004742021962139287	0.004402166896081507	-0.06307219321728059	-0.2319305380599924	-0.04542923311829818	0.02460372991494299	0.4781070460562849	2.430550379542251	0	0	0	-10.45899473842039	0	87.61758987587828	2.430550379542251	0	0
0.05	-0.009756478552404217	0.01192647329853873	-89.93756353883641	0	0.9399999998679526	0	44.99132133354883	-11.19241453672837	0	59.99630973308163	1.047133143888595	-5.535259444045665	0	0	44.99132133354883	-11.19241453672837	0	59.99630973308163	1.047133143888595	-5.535259444045665	0	0	0.03092759826375453	0.007742201438215382	-0.06033158447598518	-0.498580005373215	-0.09049256580158757	0.008538180396291201	0.9644192549267737	2.360789260114173	0	0	0	-10.55652462321657	0	87.68596283360772	2.360789260114173	0	0
0.06	-0.0008147652776874613	-0.003772728193137215	-89.94073451315396	0	0.9399999998679526	0	44.99152574468364	-11.10521728193981	0	59.99638105333543	1.047134388661847	-5.486573878924727	0	0	44.99152574468364	-11.10521728193981	0	59.99638105333543	1.047134388661847	-5.486573878924727	0	0	0.02025851262921143	-0.02347875191379295	-0.1658204695070689	-0.2752563348752518	-0.01058683621429928	0.1323971189827509	0.4297568622179113	2.321512090803511	0	0	0	-10.61144020579782	0	87.72445842800893	2.321512090803511	0	0
0.07000000000000001	0.01306742541560287	-0.008250411484817836	-89.91327990184192	0	0.9399999998679526	0	44.99167534500676	-11.046122377645	0	59.99643365492867	1.047135306732841	-5.454457042344941	0	0	44.99167534500676	-11.046122377645	0	59.99643365492867	1.047135306732841	-5.454457042344941	0	0	0.01481090966977234	-0.02850104405356975	-0.1620355481585509	-0.2837198069075897	-0.03679433572361872	0.03584000532599863	0.4286369992546791	2.292454278201042	0	0	0	-10.65234012792989	0	87.75293807115411	2.292454278201042	0	0
0.08	-0.009813133853970472	0.01427665886468445	-89.88553856912733	0	0.9399999998679526	0	44.99188233108969	-10.96663989471286	0	59.99650662571297	1.047136580313285	-5.411743661511507	0	0	44.99188233108969	-10.96663989471286	0	59.99650662571297	1.047136580313285	-5.411743661511507	0	0	0.06950753022581323	-0.01203623593256031	-0.1490535422307651	-0.3778398188500039	-0.02598534119391905	0.02057608819996437	0.530813794277048	2.2521026944163	0	0	0	-10.70926344937686	0	87.79248679267609	2.2521026944163	0	0
0.09	0.002515017301521252	-0.01192216015292161	-89.87569429884981	0	0.9399999998679526	0	44.99221928797272	-10.8424822682153	0	59.99662588168076	1.047138661722575	-5.346075316478174	0	0	44.99221928797272	-10.8424822682153	0	59.99662588168076	1.047138661722575	-5.346075316478174	0	0	0.01930598939945992	-0.02304761943679087	-0.1559083484979783	-0.3292240099522926	-0.06577586013127198	-0.003283929536773991	0.5500417630400989	2.186056093856156	0	0	0	-10.80274329407359	0	87.85721933405516	2.186056093856156	0	0
0.1	-0.003589903804184143	0.002279836370823172	-89.8370997402094	0	0.9399999998679526	0	44.99244509750587	-10.76559134381461	0	59.99670640031624	1.047140067037873	-5.306607752023323	0	0	44.99244509750587	-10.76559134381461	0	59.99670640031624	1.047140067037873	-5.306607752023323	0	0	0.06800993744584545	-0.04578797545907131	-0.2261988964778656	-0.3158831523851309	-0.006524649131783172	-0.03538404147115042	0.4311367724928339	2.141329629349576	0	0	0	-10.86645412958116	0	87.90105599104987	2.141329629349576	0	0
0.11	-0.008699345629955434	-0.01431566558376924	-89.8093222920417	0	0.9399999998679526	0	44.99244599005821	-10.76527433773095	0	59.99670671801239	1.047140072582717	-5.306442112422847	0	0	44.99244599005821	-10.76527433773095	0	59.99670671801239	1.047140072582717	-5.306442112422847	0	0	0.05613632783469155	-0.04625930821166652	-0.3009897318005008	-0.3261678213092115	-0.01332979805624849	-0.05573266860882065	0.4189884083209485	2.141153680792064	0	0	0	-10.86670408761899	0	87.90122843907385	2.141153680792064	0	0
0.12	0.007909948618490618	-0.01601930285872443	-89.80343457627797	0	0.9399999998679526	0	44.99258075710903	-10.72403283812003	0	59.99675528397091	1.047140920218598	-5.286069026243547	0	0	44.99258075710903	-10.72403283812003	0	59.99675528397091	1.047140920218598	-5.286069026243547	0	0	0.03459871910414766	-0.0526128094044024	-0.3240083286270283	-0.3022921306802005	-0.0361489465937964	-0.0676418992663371	0.4299954793771796	2.114061820512045	0	0	0	-10.90564927663801	0	87.92778137687473	2.114061820512045	0	0
0.13	-0.0138384663111408	-0.01463667717049937	-89.73809021480969	0	0.9399999998679526	0	44.99271698410684	-10.68383862552191	0	59.99680455965916	1.047141780241599	-5.266466839393154	0	0	44.99271698410684	-10.68383862552191	0	59.99680455965916	1.047141780241599	-5.266466839393154	0	0	0.03592912342878445	-0.04195721219488063	-0.3860124125544368	-0.2973950871323712	-0.01462346470537112	-0.06523769963082196	0.417246517609267	2.086533898294448	0	0	0	-10.94534904536957	0	87.95476172028434	2.086533898294448	0	0
0.14	0.008440833615119778	-0.0004008756893039161	-89.70972611820473	0	0.9399999998679526	0	44.99271777875615	-10.68357825374915	0	59.99680484570548	1.047141785234049	-5.266334563613753	0	0	44.99271777875615	-10.68357825374915	0	59.99680484570548	1.047141785234049	-5.266334563613753	0	0	0.05632568376169688	-0.05511574346062886	-0.4076330381917041	-0.3522450366444275	0.003997839124943534	-0.08161780584490978	0.4407184843782941	2.086375346780136	0	0	0	-10.94557605163754	0	87.95491711764113	2.086375346780136	0	0
0.15	0.01122548278562415	0.01276496529127315	-89.70740289531915	0	0.9399999998679526	0	44.99284888186303	-10.64636693739169	0	59.99685245040665	1.047142616092824	-5.248440219459879	0	0	44.99284888186303	-10.64636693739169	0	59.99685245040665	1.047142616092824	-5.248440219459879	0	0	0.06336269260832365	-0.07066995848987574	-0.4162992802364365	-0.3362946932783573	0.03048045359794136	-0.09164653238469604	0.4330056498524832	2.059739486049709	0	0	0	-10.98411752019978	0	87.9810231619432	2.059739486049709	0	0
0.16	0.02909676844614791	0.009990672491369991	-89.70305626945269	0	0.9399999998679526	0	44.99297643039957	-10.61155638877093	0	59.99689894724516	1.047143427615748	-5.231933156515451	0	0	44.99297643039957	-10.61155638877093	0	59.99689894724516	1.047143427615748	-5.231933156515451	0	0	0.06229101921196153	-0.0742361524067978	-0.4195552723387401	-0.3436518356040832	0.02226111064295723	-0.1180637154276218	0.4450622888173102	2.033682363356617	0	0	0	-11.02195062297616	0	88.00656199726724	2.033682363356617	0	0
0.17	0.004895935012332824	0.01093995465075121	-89.63813183843463	0	0.9399999998679526	0	44.99314884317224	-10.56560646171226	0	59.9969619338921	1.047144526940122	-5.210358387162307	0	0	44.99314884317224	-10.56560646171226	0	59.9969619338921	1.047144526940122	-5.210358387162307	0	0	0.06833912903032251	-0.06301771406228546	-0.477032480154959	-0.339467418120984	0.05184415067637886	-0.08634213254453811	0.4469137896690084	1.998354909724404	0	0	0	-11.07333628589637	0	88.04118678413349	1.998354909724404	0	0
0.18	0.008820563959317629	0.00909973541525708	-89.644318563616	0	0.9399999998679526	0	44.99327234780547	-10.5345827764495	0	59.99700732491365	1.047145319162899	-5.196090181247865	0	0	44.99327234780547	-10.5345827764495	0	59.99700732491365	1.047145319162899	-5.196090181247865	0	0	0.06171798669188248	-0.06746089376185034	-0.4161629097875542	-0.3214315276503275	0.03735158497145776	-0.1752566349238711	0.4677061431100955	1.972835316796258	0	0	0	-11.11064941697716	0	88.06619881406579	1.972835316796258	0	0
0.19	0.008544724718602693	0.01762100366169715	-89.64593619930494	0	0.9399999998679526	0	44.99343939535521	-10.49425566105237	0	59.99706895108432	1.047146394742482	-5.177822264266211	0	0	44.99343939535521	-10.49425566105237	0	59.99706895108432	1.047146394742482	-5.177822264266211	0	0	0.08238531957585642	-0.06701565064164287	-0.4139611025754089	-0.3380495226587055	0.03301134299190166	-0.1469440904755002	0.4893665120682426	1.938134264823662	0	0	0	-11.16155306211937	0	88.10020971244292	1.938134264823662	0	0
0.2	0.007892748269903908	0.001429007526573902	-89.58153008303321	0	0.9399999998679526	0	44.99360917347212	-10.45547713848094	0	59.99713193002827	1.047147493932413	-5.160607130638669	0	0	44.99360917347212	-10.45547713848094	0	59.99713193002827	1.047147493932413	-5.160607130638669	0	0	0.05722933610728769	-0.07004715398036344	-0.4176989568600176	-0.3207769280516226	0.06781213137103299	-0.241165734233278	0.4732094805141611	1.902595228020768	0	0	0	-11.21393248177864	0	88.13504195790611	1.902595228020768	0	0
0.21	0.008583942671570111	0.002552760064295874	-89.58286051865153	0	0.9399999998679526	0	44.99372893374287	-10.42980480845372	0	59.9971766472247	1.047148274394723	-5.149454314632136	0	0	44.99372893374287	-10.42980480845372	0	59.9971766472247	1.047148274394723	-5.149454314632136	0	0	0.05583563679423386	-0.06889910780151784	-0.3567285814079107	-0.3214397921603855	0.05567946259872494	-0.3370399386257714	0.4772407014916409	1.877295531817126	0	0	0	-11.25143317177843	0	88.15983852376336	1.877295531817126	0	0
0.22	0.003998301065232431	-0.002402139104643887	-89.50526540588496	0	0.9399999998679526	0	44.99386558748827	-10.4005806391211	0	59.99722767809198	1.047149165051378	-5.136783888029231	0	0	44.99386558748827	-10.4005806391211	0	59.99722767809198	1.047149165051378	-5.136783888029231	0	0	0.08015305012006627	-0.09695160545527692	-0.4056295691010784	-0.3504784650522445	0.07335664236270822	-0.3664428235380097	0.6077707261690841	1.848425653576786	0	0	0	-11.29422590587835	0	88.18813427073231	1.848425653576786	0	0
